# xmcd
#
# Track frame offsets:
#	150
#	27665
#	40017
#	55312
#	81235
#	100727
#
# Disc length: 1569 seconds
#
# Revision: 0
# Processed by: cddbd v1.4PL0 Copyright (c) Steve Scherf et al.
# Submitted via: dBpowerAMP V4.0
#
DISCID=46061f06
DTITLE=Mama' Boys - 6x4
DYEAR=1999
DGENRE=Blues
TTITLE0=Wrapped Up In Love Again
TTITLE1=Watch Yourself
TTITLE2=Cut Out
TTITLE3=I Told You So
TTITLE4=When You Left Me
TTITLE5=Close To You
EXTD=
EXTT0=
EXTT1=
EXTT2=
EXTT3=
EXTT4=
EXTT5=
PLAYORDER=
